<svg width="960" height="400" viewBox="0 0 960 400" xmlns="http://www.w3.org/2000/svg">
  <defs>
    <marker id="arrow-green" markerWidth="8" markerHeight="8" refX="7" refY="4" orient="auto">
      <polygon points="0 0, 8 4, 0 8" fill="#2B6F2B"/>
    </marker>
    <marker id="arrow-blue" markerWidth="10" markerHeight="10" refX="9" refY="5" orient="auto">
      <polygon points="0 0, 10 5, 0 10" fill="#1E3A8A"/>
    </marker>
    <marker id="arrow-red" markerWidth="8" markerHeight="8" refX="7" refY="4" orient="auto">
      <polygon points="0 0, 8 4, 0 8" fill="#B91C1C"/>
    </marker>
  </defs>

  <rect width="960" height="400" fill="#F5F5F5"/>
  <line x1="320" y1="20" x2="320" y2="340" stroke="#B8B8B8" stroke-width="1" stroke-dasharray="4 4"/>
  <line x1="640" y1="20" x2="640" y2="340" stroke="#B8B8B8" stroke-width="1" stroke-dasharray="4 4"/>

  <g transform="translate(40 20)" font-family="'Noto Sans SC','Microsoft YaHei','PingFang SC',sans-serif">
    <text x="120" y="30" text-anchor="middle" font-size="18" font-weight="700" fill="#2B6F2B">阶段1 · 骚扰消耗</text>
    <text x="120" y="50" text-anchor="middle" font-size="12" fill="#2B6F2B">轻骑游走，侧击粮道</text>

    <text x="120" y="150" text-anchor="middle" font-size="12" fill="#5A2E0E">宋军主阵</text>
    <rect x="64" y="160" width="34" height="24" fill="#8B4513" stroke="#5A2E0E" stroke-width="2"/>
    <rect x="103" y="160" width="34" height="24" fill="#8B4513" stroke="#5A2E0E" stroke-width="2"/>
    <rect x="142" y="160" width="34" height="24" fill="#8B4513" stroke="#5A2E0E" stroke-width="2"/>
    <text x="81" y="176" text-anchor="middle" fill="#FFFFFF" font-size="9" font-weight="700">左翼</text>
    <text x="120" y="176" text-anchor="middle" fill="#FFFFFF" font-size="9" font-weight="700">中军</text>
    <text x="159" y="176" text-anchor="middle" fill="#FFFFFF" font-size="9" font-weight="700">右翼</text>

    <rect x="82" y="224" width="76" height="20" fill="#D7C4A8" stroke="#8B6B47" stroke-width="2" stroke-dasharray="5 4"/>
    <text x="120" y="238" text-anchor="middle" font-size="10" fill="#6B4A28">粮道 / 辎重</text>

    <ellipse cx="28" cy="108" rx="12" ry="8" fill="#B9D7F5" stroke="#1F2937" stroke-width="1.5"/>
    <ellipse cx="48" cy="138" rx="12" ry="8" fill="#B9D7F5" stroke="#1F2937" stroke-width="1.5"/>
    <ellipse cx="212" cy="108" rx="12" ry="8" fill="#B9D7F5" stroke="#1F2937" stroke-width="1.5"/>
    <ellipse cx="192" cy="138" rx="12" ry="8" fill="#B9D7F5" stroke="#1F2937" stroke-width="1.5"/>
    <text x="28" y="92" text-anchor="middle" font-size="10" fill="#355C7D">轻骑</text>
    <text x="212" y="92" text-anchor="middle" font-size="10" fill="#355C7D">轻骑</text>

    <path d="M28 108Q6 150 60 170" stroke="#2B6F2B" stroke-width="3" fill="none" stroke-dasharray="6 6" marker-end="url(#arrow-green)"/>
    <path d="M48 138Q28 202 84 232" stroke="#2B6F2B" stroke-width="3" fill="none" stroke-dasharray="6 6" marker-end="url(#arrow-green)"/>
    <path d="M212 108Q234 150 180 170" stroke="#2B6F2B" stroke-width="3" fill="none" stroke-dasharray="6 6" marker-end="url(#arrow-green)"/>
    <path d="M192 138Q212 202 156 232" stroke="#2B6F2B" stroke-width="3" fill="none" stroke-dasharray="6 6" marker-end="url(#arrow-green)"/>

    <path d="M108 70H132V92L120 108L108 92Z" fill="#A3A3A3" stroke="#111111" stroke-width="1.5" stroke-dasharray="3 2"/>
    <text x="120" y="122" text-anchor="middle" font-size="10" fill="#666666">重骑待机</text>
  </g>

  <g transform="translate(360 20)" font-family="'Noto Sans SC','Microsoft YaHei','PingFang SC',sans-serif">
    <text x="120" y="30" text-anchor="middle" font-size="18" font-weight="700" fill="#1E3A8A">阶段2 · 楔入冲击</text>
    <text x="120" y="50" text-anchor="middle" font-size="12" fill="#1E3A8A">轻骑牵制两翼，重骑插入正面</text>

    <rect x="70" y="168" width="54" height="30" fill="#8B4513" stroke="#5A2E0E" stroke-width="2"/>
    <rect x="116" y="168" width="8" height="30" fill="#F5F5F5"/>
    <rect x="128" y="168" width="54" height="30" fill="#8B4513" stroke="#5A2E0E" stroke-width="2"/>
    <text x="97" y="187" text-anchor="middle" fill="#FFFFFF" font-size="10" font-weight="700">左阵</text>
    <text x="155" y="187" text-anchor="middle" fill="#FFFFFF" font-size="10" font-weight="700">右阵</text>
    <rect x="84" y="228" width="72" height="18" fill="#D7C4A8" stroke="#8B6B47" stroke-width="2" stroke-dasharray="5 4"/>
    <text x="120" y="241" text-anchor="middle" font-size="10" fill="#6B4A28">粮道受压</text>

    <ellipse cx="28" cy="112" rx="12" ry="8" fill="#B9D7F5" stroke="#1F2937" stroke-width="1.5" opacity="0.75"/>
    <ellipse cx="212" cy="112" rx="12" ry="8" fill="#B9D7F5" stroke="#1F2937" stroke-width="1.5" opacity="0.75"/>
    <path d="M28 112Q12 154 64 186" stroke="#2B6F2B" stroke-width="2.5" fill="none" stroke-dasharray="5 5" marker-end="url(#arrow-green)"/>
    <path d="M212 112Q228 154 176 186" stroke="#2B6F2B" stroke-width="2.5" fill="none" stroke-dasharray="5 5" marker-end="url(#arrow-green)"/>

    <path d="M108 66H132V94L142 108L120 136L98 108L108 94Z" fill="#7F1D1D" stroke="#111111" stroke-width="2"/>
    <line x1="120" y1="136" x2="120" y2="160" stroke="#1E3A8A" stroke-width="3"/>
    <line x1="120" y1="160" x2="120" y2="212" stroke="#1E3A8A" stroke-width="5" marker-end="url(#arrow-blue)"/>
    <text x="150" y="132" font-size="12" fill="#1E3A8A" font-weight="700">插入 / 撕裂</text>
  </g>

  <g transform="translate(680 20)" font-family="'Noto Sans SC','Microsoft YaHei','PingFang SC',sans-serif">
    <text x="120" y="30" text-anchor="middle" font-size="18" font-weight="700" fill="#B91C1C">阶段3 · 分割消灭</text>
    <text x="120" y="50" text-anchor="middle" font-size="12" fill="#B91C1C">中央破阵后，两翼回收合围</text>

    <rect x="62" y="172" width="40" height="24" fill="#8B4513" stroke="#B91C1C" stroke-width="2"/>
    <rect x="110" y="154" width="28" height="22" fill="#8B4513" stroke="#B91C1C" stroke-width="2"/>
    <rect x="146" y="172" width="40" height="24" fill="#8B4513" stroke="#B91C1C" stroke-width="2"/>
    <text x="82" y="188" text-anchor="middle" fill="#FFFFFF" font-size="9" font-weight="700">左部</text>
    <text x="124" y="169" text-anchor="middle" fill="#FFFFFF" font-size="8" font-weight="700">中军</text>
    <text x="166" y="188" text-anchor="middle" fill="#FFFFFF" font-size="9" font-weight="700">右部</text>

    <rect x="92" y="230" width="56" height="18" fill="#D7C4A8" stroke="#B91C1C" stroke-width="2" stroke-dasharray="4 3"/>
    <line x1="94" y1="232" x2="146" y2="246" stroke="#B91C1C" stroke-width="2"/>
    <text x="120" y="262" text-anchor="middle" font-size="10" fill="#B91C1C">粮道断绝</text>

    <ellipse cx="30" cy="110" rx="12" ry="8" fill="#B9D7F5" stroke="#1F2937" stroke-width="1.5"/>
    <ellipse cx="50" cy="142" rx="12" ry="8" fill="#B9D7F5" stroke="#1F2937" stroke-width="1.5"/>
    <ellipse cx="210" cy="110" rx="12" ry="8" fill="#B9D7F5" stroke="#1F2937" stroke-width="1.5"/>
    <ellipse cx="190" cy="142" rx="12" ry="8" fill="#B9D7F5" stroke="#1F2937" stroke-width="1.5"/>
    <ellipse cx="120" cy="276" rx="12" ry="8" fill="#B9D7F5" stroke="#1F2937" stroke-width="1.5"/>

    <path d="M30 110Q2 156 56 186" stroke="#B91C1C" stroke-width="3.5" fill="none" marker-end="url(#arrow-red)"/>
    <path d="M50 142Q26 188 88 206" stroke="#B91C1C" stroke-width="3.5" fill="none" marker-end="url(#arrow-red)"/>
    <path d="M210 110Q238 156 184 186" stroke="#B91C1C" stroke-width="3.5" fill="none" marker-end="url(#arrow-red)"/>
    <path d="M190 142Q214 188 152 206" stroke="#B91C1C" stroke-width="3.5" fill="none" marker-end="url(#arrow-red)"/>
    <path d="M120 276Q120 238 122 198" stroke="#B91C1C" stroke-width="3.5" fill="none" marker-end="url(#arrow-red)"/>

    <path d="M108 90H132V116L140 128L120 152L100 128L108 116Z" fill="#7F1D1D" stroke="#111111" stroke-width="2"/>
    <line x1="120" y1="152" x2="120" y2="174" stroke="#1E3A8A" stroke-width="4" marker-end="url(#arrow-blue)"/>
  </g>

  <g transform="translate(46 368)" font-family="'Noto Sans SC','Microsoft YaHei','PingFang SC',sans-serif" font-size="12" fill="#333333">
    <rect x="0" y="-10" width="16" height="12" fill="#8B4513" stroke="#5A2E0E" stroke-width="1.5"/>
    <text x="24" y="0">宋军单位</text>
    <rect x="92" y="-10" width="16" height="12" fill="#D7C4A8" stroke="#8B6B47" stroke-width="1.5" stroke-dasharray="4 3"/>
    <text x="116" y="0">粮道/辎重</text>
    <ellipse cx="218" cy="-4" rx="10" ry="6" fill="#B9D7F5" stroke="#1F2937" stroke-width="1.2"/>
    <text x="236" y="0">金军轻骑</text>
    <path d="M324 -12H340V4L332 16L324 4Z" fill="#7F1D1D" stroke="#111111" stroke-width="1.2"/>
    <text x="352" y="0">金军重骑</text>
    <text x="470" y="0" fill="#666666">战术流程：骚扰断粮 → 楔入破阵 → 合围歼灭</text>
  </g>
</svg>
